<svg width="20" height="20" viewBox="0 0 20 20" fill="none" xmlns="http://www.w3.org/2000/svg">
    <path fill-rule="evenodd" clip-rule="evenodd" d="M9.99996 2.29175C5.74276 2.29175 2.29163 5.74289 2.29163 10.0001C2.29163 14.2573 5.74276 17.7084 9.99996 17.7084C14.2572 17.7084 17.7083 14.2573 17.7083 10.0001C17.7083 5.74289 14.2572 2.29175 9.99996 2.29175ZM1.04163 10.0001C1.04163 5.05253 5.05241 1.04175 9.99996 1.04175C14.9475 1.04175 18.9583 5.05253 18.9583 10.0001C18.9583 14.9476 14.9475 18.9584 9.99996 18.9584C5.05241 18.9584 1.04163 14.9476 1.04163 10.0001ZM9.99996 6.04175C10.3451 6.04175 10.625 6.32157 10.625 6.66675V9.7412L12.5252 11.6415C12.7693 11.8856 12.7693 12.2813 12.5252 12.5254C12.2812 12.7694 11.8854 12.7694 11.6414 12.5254L9.55802 10.442C9.44081 10.3248 9.37496 10.1658 9.37496 10.0001V6.66675C9.37496 6.32157 9.65478 6.04175 9.99996 6.04175Z" fill="#111111"/>
</svg>
