<svg width="72" height="28" viewBox="0 0 72 28" fill="none" xmlns="http://www.w3.org/2000/svg">
    <rect x="0.5" y="0.5" width="71" height="27" rx="3.5" stroke="#AB7843"/>
    <path d="M14 10L24 10" stroke="#222222" stroke-linecap="round"/>
    <path d="M8 18L18 18" stroke="#222222" stroke-linecap="round"/>
    <ellipse cx="11" cy="10" rx="3" ry="3" transform="rotate(90 11 10)" stroke="#222222" stroke-linecap="round"/>
    <ellipse cx="21" cy="18" rx="3" ry="3" transform="rotate(90 21 18)" stroke="#222222" stroke-linecap="round"/>
    <path d="M33.2359 19V9.368H34.2579V19H33.2359ZM33.9079 14.646V13.708H39.0739V14.646H33.9079ZM33.9079 10.306V9.368H39.3119V10.306H33.9079ZM40.9413 19V12.42H41.9353V19H40.9413ZM41.4313 10.992C41.2446 10.992 41.0859 10.9267 40.9553 10.796C40.8246 10.656 40.7593 10.4927 40.7593 10.306C40.7593 10.11 40.8246 9.94667 40.9553 9.816C41.0859 9.68533 41.2446 9.62 41.4313 9.62C41.6366 9.62 41.7999 9.68533 41.9213 9.816C42.0519 9.94667 42.1173 10.11 42.1173 10.306C42.1173 10.4927 42.0519 10.656 41.9213 10.796C41.7999 10.9267 41.6366 10.992 41.4313 10.992ZM43.9217 19V9.088H44.9017V19H43.9217ZM47.9105 19V9.648H48.8905V19H47.9105ZM46.2445 13.302V12.42H50.5425V13.302H46.2445ZM54.698 19.14C54.0353 19.14 53.4427 18.9907 52.92 18.692C52.3973 18.3933 51.982 17.9827 51.674 17.46C51.3753 16.9373 51.226 16.3493 51.226 15.696C51.226 15.052 51.3753 14.4733 51.674 13.96C51.9727 13.4373 52.3787 13.0267 52.892 12.728C53.4053 12.4293 53.9793 12.28 54.614 12.28C55.2113 12.28 55.7387 12.4153 56.196 12.686C56.6627 12.9567 57.0267 13.3347 57.288 13.82C57.5587 14.296 57.694 14.8467 57.694 15.472C57.694 15.5467 57.6893 15.6353 57.68 15.738C57.6707 15.8313 57.652 15.9433 57.624 16.074H51.926V15.234H57.092L56.742 15.542C56.7513 15.0567 56.6673 14.6413 56.49 14.296C56.322 13.9413 56.0747 13.6707 55.748 13.484C55.4307 13.288 55.0433 13.19 54.586 13.19C54.11 13.19 53.6947 13.2927 53.34 13.498C52.9853 13.7033 52.7053 13.9927 52.5 14.366C52.304 14.73 52.206 15.164 52.206 15.668C52.206 16.172 52.3087 16.6153 52.514 16.998C52.7287 17.3807 53.0227 17.6793 53.396 17.894C53.7787 18.1087 54.2173 18.216 54.712 18.216C55.1133 18.216 55.482 18.146 55.818 18.006C56.154 17.8567 56.4387 17.6373 56.672 17.348L57.302 17.992C56.994 18.356 56.6113 18.6407 56.154 18.846C55.706 19.042 55.2207 19.14 54.698 19.14ZM59.1932 19V12.42H60.1732V19H59.1932ZM60.1732 15.164L59.7672 14.982C59.7672 14.1513 59.9679 13.4933 60.3692 13.008C60.7799 12.5227 61.3399 12.28 62.0492 12.28C62.3759 12.28 62.6746 12.3407 62.9452 12.462C63.2159 12.574 63.4679 12.756 63.7012 13.008L63.0572 13.694C62.8986 13.5167 62.7212 13.3907 62.5252 13.316C62.3386 13.2413 62.1239 13.204 61.8812 13.204C61.3772 13.204 60.9666 13.372 60.6492 13.708C60.3319 14.0347 60.1732 14.52 60.1732 15.164Z" fill="#111111"/>
</svg>
