<svg width="24" height="24" viewBox="0 0 24 24" fill="none" xmlns="http://www.w3.org/2000/svg">
    <path d="M11.25 19C11.25 18.5858 11.5858 18.25 12 18.25H18C18.1381 18.25 18.25 18.1381 18.25 18L18.25 6C18.25 5.86193 18.1381 5.75 18 5.75L12 5.75C11.5858 5.75 11.25 5.41421 11.25 5C11.25 4.58579 11.5858 4.25 12 4.25H18C18.9665 4.25 19.75 5.0335 19.75 6V18C19.75 18.9665 18.9665 19.75 18 19.75H12C11.5858 19.75 11.25 19.4142 11.25 19Z" fill="#B5B5B5"/>
    <path d="M15.6116 13.1152C15.6116 13.6675 15.1639 14.1152 14.6116 14.1152H9.75562C9.73268 14.4706 9.70398 14.8258 9.6695 15.1805L9.63984 15.4857C9.59161 15.982 9.06465 16.2791 8.61503 16.0637C6.78712 15.1876 5.13233 13.9889 3.73027 12.525L3.70032 12.4937C3.43322 12.2148 3.43322 11.7751 3.70032 11.4962L3.73028 11.4649C5.13233 10.001 6.78712 8.80226 8.61503 7.92625C9.06465 7.71077 9.59161 8.00796 9.63984 8.5042L9.6695 8.8094C9.70398 9.16413 9.73268 9.51928 9.75562 9.8747L14.6116 9.87471C15.1639 9.87471 15.6116 10.3224 15.6116 10.8747V13.1152Z" fill="#B5B5B5"/>
</svg>
