<svg width="44" height="45" viewBox="0 0 44 45" fill="none" xmlns="http://www.w3.org/2000/svg">
    <rect y="0.185059" width="44" height="44" rx="22" fill="#CA915A"/>
    <path fill-rule="evenodd" clip-rule="evenodd" d="M23 13.1851C23 12.6328 22.5523 12.1851 22 12.1851C21.4477 12.1851 21 12.6328 21 13.1851V13.9351H20.4426C18.2175 13.9351 16.3759 15.6651 16.237 17.8858L16.016 21.4193C15.9318 22.7665 15.4795 24.0647 14.7084 25.1726C14.0117 26.1737 14.6319 27.5563 15.8429 27.7016L19.25 28.1104V29.1851C19.25 30.7038 20.4812 31.9351 22 31.9351C23.5188 31.9351 24.75 30.7038 24.75 29.1851V28.1104L28.1571 27.7016C29.3681 27.5563 29.9883 26.1737 29.2916 25.1726C28.5205 24.0647 28.0682 22.7665 27.984 21.4193L27.763 17.8858C27.6241 15.6651 25.7825 13.9351 23.5574 13.9351H23V13.1851ZM20.4426 15.4351C19.0096 15.4351 17.8235 16.5492 17.7341 17.9794L17.5131 21.5129C17.4117 23.134 16.8674 24.6963 15.9396 26.0295C15.8892 26.1018 15.9341 26.2018 16.0216 26.2123L19.7592 26.6608C21.2477 26.8394 22.7523 26.8394 24.2407 26.6608L27.9784 26.2123C28.0659 26.2018 28.1108 26.1018 28.0604 26.0295C27.1326 24.6963 26.5883 23.134 26.4869 21.5129L26.2659 17.9794C26.1764 16.5492 24.9904 15.4351 23.5574 15.4351H20.4426ZM22 30.4351C21.3096 30.4351 20.75 29.8754 20.75 29.1851V28.4351H23.25V29.1851C23.25 29.8754 22.6904 30.4351 22 30.4351Z" fill="black"/>
</svg>
