<svg width="24" height="24" viewBox="0 0 24 24" fill="none" xmlns="http://www.w3.org/2000/svg">
    <path d="M16.1309 3.18602C13.4009 2.72836 10.5991 2.72836 7.86915 3.18602C6.87181 3.35323 6.07754 4.11889 5.87757 5.11167C4.96145 9.65976 4.91146 14.3398 5.73023 18.9065L6.06358 20.7657C6.16637 21.339 6.86528 21.5681 7.28754 21.167L11.3113 17.3444C11.6972 16.9778 12.3028 16.9778 12.6888 17.3444L16.7125 21.167C17.1347 21.5681 17.8336 21.339 17.9364 20.7657L18.2698 18.9065C19.0885 14.3398 19.0386 9.65976 18.1224 5.11167C17.9225 4.11889 17.1282 3.35323 16.1309 3.18602Z" fill="#929292"/>
</svg>
