<svg width="130" height="131" viewBox="0 0 130 131" fill="none" xmlns="http://www.w3.org/2000/svg">
    <rect y="0.5" width="130" height="130" rx="65" fill="#FAF4EF"/>
    <circle cx="65" cy="65.5" r="45" fill="#AB7843"/>
    <path d="M65.0001 52.1667C57.6534 52.1667 51.6667 58.1534 51.6667 65.5001C51.6667 72.8467 57.6534 78.8334 65.0001 78.8334C72.3467 78.8334 78.3334 72.8467 78.3334 65.5001C78.3334 58.1534 72.3467 52.1667 65.0001 52.1667ZM71.3734 62.4334L63.8134 69.9934C63.6267 70.1801 63.3734 70.2867 63.1067 70.2867C62.8401 70.2867 62.5867 70.1801 62.4001 69.9934L58.6267 66.2201C58.2401 65.8334 58.2401 65.1934 58.6267 64.8067C59.0134 64.4201 59.6534 64.4201 60.0401 64.8067L63.1067 67.8734L69.9601 61.0201C70.3467 60.6334 70.9867 60.6334 71.3734 61.0201C71.7601 61.4067 71.7601 62.0334 71.3734 62.4334Z" fill="#111111"/>
</svg>
