<svg width="24" height="24" viewBox="0 0 24 24" fill="none" xmlns="http://www.w3.org/2000/svg">
    <path d="M8.75 11.9996C8.75 10.2047 10.2051 8.74964 12 8.74964C13.7949 8.74964 15.25 10.2047 15.25 11.9996C15.25 13.7946 13.7949 15.2496 12 15.2496C10.2051 15.2496 8.75 13.7946 8.75 11.9996Z" fill="#929292"/>
    <path fill-rule="evenodd" clip-rule="evenodd" d="M11.4607 1.83816C11.7555 1.53311 12.2445 1.53311 12.5393 1.83816L15.1116 4.49964H18.75C19.1642 4.49964 19.5 4.83543 19.5 5.24964V8.88804L22.1615 11.4604C22.4665 11.7552 22.4665 12.2441 22.1615 12.5389L19.5 15.1112V18.7496C19.5 19.1639 19.1642 19.4996 18.75 19.4996H15.1116L12.5393 22.1611C12.2445 22.4662 11.7555 22.4662 11.4607 22.1611L8.88839 19.4996H5.25001C4.8358 19.4996 4.50001 19.1639 4.50001 18.7496V15.1113L1.83852 12.5389C1.53348 12.2441 1.53348 11.7552 1.83852 11.4604L4.50001 8.88803V5.24964C4.50001 4.83543 4.83579 4.49964 5.25001 4.49964H8.8884L11.4607 1.83816ZM12 7.24964C9.37665 7.24964 7.25 9.37629 7.25 11.9996C7.25 14.623 9.37665 16.7496 12 16.7496C14.6234 16.7496 16.75 14.623 16.75 11.9996C16.75 9.37629 14.6234 7.24964 12 7.24964Z" fill="#929292"/>
</svg>
