<svg width="24" height="24" viewBox="0 0 24 24" fill="none" xmlns="http://www.w3.org/2000/svg">
    <path fill-rule="evenodd" clip-rule="evenodd" d="M9.72961 3.99219C10.8216 2.39453 13.1784 2.39453 14.2703 3.9922L14.7023 4.62414C17.4083 8.58336 19.7333 12.79 21.646 17.1876L21.7362 17.3951C22.4103 18.9448 21.3919 20.7045 19.7124 20.8923C14.5867 21.4651 9.41323 21.4651 4.2876 20.8923C2.60805 20.7045 1.58969 18.9448 2.26374 17.3951L2.35396 17.1876C4.26669 12.79 6.59165 8.58335 9.29769 4.62414L9.72961 3.99219ZM13 8.99956C13 9.55185 12.5523 9.99956 12 9.99956C11.4477 9.99956 11 9.55185 11 8.99956C11 8.44728 11.4477 7.99956 12 7.99956C12.5523 7.99956 13 8.44728 13 8.99956ZM12 11.7496C12.4142 11.7496 12.75 12.0853 12.75 12.4996V17.4996C12.75 17.9138 12.4142 18.2496 12 18.2496C11.5858 18.2496 11.25 17.9138 11.25 17.4996V12.4996C11.25 12.0853 11.5858 11.7496 12 11.7496Z" fill="#929292"/>
</svg>
