<!--<svg width="24" height="24" viewBox="0 0 24 24" fill="none" xmlns="http://www.w3.org/2000/svg">-->
<!--    <g clip-path="url(#clip0_1158_2530)">-->
<!--        <path d="M12 24C18.6274 24 24 18.6274 24 12C24 5.37258 18.6274 0 12 0C5.37258 0 0 5.37258 0 12C0 18.6274 5.37258 24 12 24Z" fill="#AB7843"/>-->
<!--        <path d="M19.4414 16.9623C19.4858 17.1426 19.4872 17.3308 19.4454 17.5118C19.4037 17.6927 19.3199 17.8613 19.2009 18.0038C18.3211 19.0592 17.22 19.9083 15.9756 20.491C14.7313 21.0737 13.374 21.3758 12 21.3758C10.626 21.3758 9.26871 21.0737 8.02434 20.491C6.77997 19.9083 5.67889 19.0592 4.79905 18.0038C4.68007 17.8613 4.59631 17.6927 4.55454 17.5118C4.51276 17.3308 4.51415 17.1426 4.55859 16.9623C4.96694 15.3053 5.91644 13.8319 7.25671 12.7754C7.45663 12.6187 7.70243 12.5318 7.95644 12.5282C8.21044 12.5246 8.45863 12.6043 8.66296 12.7553C9.55359 13.4176 10.7212 13.8188 11.9981 13.8188C13.275 13.8188 14.4422 13.4176 15.3333 12.7553C15.5376 12.6043 15.7858 12.5246 16.0398 12.5282C16.2938 12.5318 16.5396 12.6187 16.7395 12.7754C18.0812 13.8313 19.032 15.3048 19.4414 16.9623Z" fill="white"/>-->
<!--        <path d="M12 12.2709C14.3789 12.2709 16.3073 10.3425 16.3073 7.96359C16.3073 5.58471 14.3789 3.65625 12 3.65625C9.62112 3.65625 7.69266 5.58471 7.69266 7.96359C7.69266 10.3425 9.62112 12.2709 12 12.2709Z" fill="white"/>-->
<!--    </g>-->
<!--    <defs>-->
<!--        <clipPath id="clip0_1158_2530">-->
<!--            <rect width="24" height="24" fill="white"/>-->
<!--        </clipPath>-->
<!--    </defs>-->
<!--</svg>-->


<svg width="24" height="24" viewBox="0 0 24 24" fill="none" xmlns="http://www.w3.org/2000/svg">
    <circle cx="12" cy="8" r="3.5" stroke="#111111" stroke-linecap="round"/>
    <path d="M4.84913 16.9479C5.48883 14.6034 7.91473 13.5 10.345 13.5H13.655C16.0853 13.5 18.5112 14.6034 19.1509 16.9479C19.282 17.4287 19.3868 17.9489 19.4462 18.5015C19.5052 19.0507 19.0523 19.5 18.5 19.5H5.5C4.94772 19.5 4.49482 19.0507 4.55382 18.5015C4.6132 17.9489 4.71796 17.4287 4.84913 16.9479Z" stroke="#111111" stroke-linecap="round"/>
</svg>
