<svg width="72" height="28" viewBox="0 0 72 28" fill="none" xmlns="http://www.w3.org/2000/svg">
    <rect x="0.5" y="0.5" width="71" height="27" rx="3.5" stroke="#AB7843"/>
    <path d="M19.3707 18.5L16.0827 10.244H17.0427L19.8867 17.528H19.5387L22.4067 10.244H23.3427L20.0307 18.5H19.3707ZM24.6352 18.5V12.86H25.4872V18.5H24.6352ZM25.0552 11.636C24.8952 11.636 24.7592 11.58 24.6472 11.468C24.5352 11.348 24.4792 11.208 24.4792 11.048C24.4792 10.88 24.5352 10.74 24.6472 10.628C24.7592 10.516 24.8952 10.46 25.0552 10.46C25.2312 10.46 25.3712 10.516 25.4752 10.628C25.5872 10.74 25.6432 10.88 25.6432 11.048C25.6432 11.208 25.5872 11.348 25.4752 11.468C25.3712 11.58 25.2312 11.636 25.0552 11.636ZM29.7939 18.62C29.2259 18.62 28.7179 18.492 28.2699 18.236C27.8219 17.98 27.4659 17.628 27.2019 17.18C26.9459 16.732 26.8179 16.228 26.8179 15.668C26.8179 15.116 26.9459 14.62 27.2019 14.18C27.4579 13.732 27.8059 13.38 28.2459 13.124C28.6859 12.868 29.1779 12.74 29.7219 12.74C30.2339 12.74 30.6859 12.856 31.0779 13.088C31.4779 13.32 31.7899 13.644 32.0139 14.06C32.2459 14.468 32.3619 14.94 32.3619 15.476C32.3619 15.54 32.3579 15.616 32.3499 15.704C32.3419 15.784 32.3259 15.88 32.3019 15.992H27.4179V15.272H31.8459L31.5459 15.536C31.5539 15.12 31.4819 14.764 31.3299 14.468C31.1859 14.164 30.9739 13.932 30.6939 13.772C30.4219 13.604 30.0899 13.52 29.6979 13.52C29.2899 13.52 28.9339 13.608 28.6299 13.784C28.3259 13.96 28.0859 14.208 27.9099 14.528C27.7419 14.84 27.6579 15.212 27.6579 15.644C27.6579 16.076 27.7459 16.456 27.9219 16.784C28.1059 17.112 28.3579 17.368 28.6779 17.552C29.0059 17.736 29.3819 17.828 29.8059 17.828C30.1499 17.828 30.4659 17.768 30.7539 17.648C31.0419 17.52 31.2859 17.332 31.4859 17.084L32.0259 17.636C31.7619 17.948 31.4339 18.192 31.0419 18.368C30.6579 18.536 30.2419 18.62 29.7939 18.62ZM35.1486 18.5L32.9766 12.86H33.8526L35.5686 17.54L35.2566 17.552L36.9606 12.86H37.4526L39.1566 17.552L38.8446 17.54L40.5486 12.86H41.4366L39.2526 18.5H38.7606L37.0206 13.88H37.3806L35.6526 18.5H35.1486ZM47.5559 18.62C47.0199 18.62 46.5399 18.492 46.1159 18.236C45.6919 17.972 45.3559 17.62 45.1079 17.18C44.8679 16.74 44.7479 16.244 44.7479 15.692C44.7479 15.132 44.8679 14.632 45.1079 14.192C45.3559 13.744 45.6919 13.392 46.1159 13.136C46.5399 12.872 47.0159 12.74 47.5439 12.74C47.9759 12.74 48.3599 12.828 48.6959 13.004C49.0399 13.172 49.3159 13.412 49.5239 13.724C49.7399 14.028 49.8719 14.384 49.9199 14.792V16.556C49.8719 16.964 49.7399 17.324 49.5239 17.636C49.3159 17.948 49.0399 18.192 48.6959 18.368C48.3599 18.536 47.9799 18.62 47.5559 18.62ZM47.6879 17.816C48.2719 17.816 48.7399 17.62 49.0919 17.228C49.4519 16.836 49.6319 16.32 49.6319 15.68C49.6319 15.256 49.5479 14.884 49.3799 14.564C49.2199 14.236 48.9919 13.984 48.6959 13.808C48.4079 13.624 48.0679 13.532 47.6759 13.532C47.2759 13.532 46.9199 13.624 46.6079 13.808C46.3039 13.992 46.0599 14.248 45.8759 14.576C45.6999 14.896 45.6119 15.264 45.6119 15.68C45.6119 16.096 45.6999 16.464 45.8759 16.784C46.0599 17.104 46.3079 17.356 46.6199 17.54C46.9319 17.724 47.2879 17.816 47.6879 17.816ZM49.5839 18.5V16.988L49.7519 15.596L49.5839 14.24V12.86H50.4239V18.5H49.5839ZM52.1274 18.5V10.004H52.9674V18.5H52.1274ZM54.6704 18.5V10.004H55.5104V18.5H54.6704Z" fill="#111111"/>
</svg>
